Coordinates
version=1
nRows=12
nColumns=33
inDegrees=yes

Units are S.I. units (second, meters, Newtons, ...)
Angles are in degrees.

endheader
time	ground_thorax_rot_x	ground_thorax_rot_y	ground_thorax_rot_z	ground_thorax_tx	ground_thorax_ty	ground_thorax_tz	clav_prot_r	clav_elev_r	scapula_abduction_r	scapula_elevation_r	scapula_upward_rot_r	scapula_winging_r	shoulder_elv_r	plane_of_elev_r	axial_rot_r	elbow_flexion_r	pro_sup_r	wrist_flex_r	wrist_dev_r	clav_prot_l	clav_elev_l	scapula_abduction_l	scapula_elevation_l	scapula_upward_rot_l	scapula_winging_l	shoulder_elv_l	plane_of_elev_l	axial_rot_l	elbow_flexion_l	pro_sup_l	wrist_flex_l	wrist_dev_l
      9.70000000	     44.03596480	     16.33682793	     11.22157538	   -181.26241902	    819.39456653	      6.51143735	     14.35874649	     41.58559166	     41.11167853	     45.00000000	    -26.40280925	   2069.32127659	  -2275.85730891	    147.71449616	   -130.26441130	   2170.03349092	     -0.66782768	     16.92138200	     12.17006378	      6.65749882	    -45.00000000	    -35.82612978	     45.00000000	    -43.91938811	  -3505.24418511	    795.32723841	     20.81744643	    -58.31319676	    383.27016862	    146.18878229	     -2.71782911	     -9.87336291
      9.71000000	     44.16302752	     16.68384966	     11.26345109	   -177.76418955	    817.14533080	      6.54563160	     13.47765880	     41.27777487	     40.95220246	     45.00000000	    -26.39333132	   2069.33846535	  -2276.14775223	    147.42764383	   -130.43799948	   2169.89644300	     -0.15894124	     16.75737025	     12.27657759	      7.53031579	    -45.00000000	    -36.08975723	     45.00000000	    -43.87249429	  -3505.39954489	    794.96083984	     21.01880624	    -58.66003321	    383.26006186	    147.23028586	     -2.83205946	     -9.90224911
      9.72000000	     44.38638328	     16.80586449	     11.36633625	   -174.20068561	    814.82643373	      6.57124161	     14.55920951	     41.83815778	     41.40752883	     45.00000000	    -25.82759672	   2069.48089411	  -2276.40624311	    147.94103255	   -129.86258827	   2169.80124925	      0.84295262	     16.70478020	     12.47073743	      6.46127662	    -45.00000000	    -35.71546534	     45.00000000	    -43.88915250	  -3506.04562390	    794.87132146	     20.80820060	    -58.26561945	    383.27918243	    148.83202925	     -2.92997129	     -9.84131290
      9.73000000	     44.56596602	     17.03530212	     11.42031960	   -170.57246333	    812.44356108	      6.58749743	     14.67861485	     41.98047265	     41.53936425	     45.00000000	    -25.40386104	   2069.49561424	  -2276.71802047	    148.07930126	   -129.41808745	   2169.69119481	      1.79028846	     16.62559366	     12.56077825	      6.33746241	    -45.00000000	    -35.64182781	     45.00000000	    -43.95399318	  -3506.48544978	    794.67028848	     20.83999538	    -58.24701648	    383.31940380	    150.32119330	     -3.06594593	     -9.81898752
      9.74000000	     44.71137715	     17.27452820	     11.55436515	   -166.89223574	    810.00841181	      6.59386491	     14.82204955	     42.09389521	     41.62443099	     45.00000000	    -25.24730454	   2069.61817958	  -2276.97758063	    148.15443940	   -129.26369588	   2169.55005609	      2.73593237	     16.53092865	     12.71691231	      6.22011001	    -45.00000000	    -35.56941894	     45.00000000	    -43.93440605	  -3506.88577940	    794.39438173	     20.78774590	    -58.40106115	    383.31947789	    151.62179126	     -3.14855053	     -9.78819007
      9.75000000	     44.78876127	     17.58286365	     11.70880462	   -163.16136893	    807.52773903	      6.59004301	     14.66924286	     42.09537571	     41.60355873	     45.00000000	    -25.30772977	   2069.62223112	  -2277.32617052	    147.98534402	   -129.23844437	   2169.40545152	      3.55364022	     16.41916848	     12.88012226	      6.44537869	    -45.00000000	    -35.62245102	     45.00000000	    -43.92753807	  -3507.21085709	    794.15581444	     20.83751780	    -58.63290193	    383.31952677	    152.56801949	     -3.22936733	     -9.78788788
      9.76000000	     44.89528433	     17.80332445	     11.89997696	   -159.38697119	    805.01224124	      6.57570569	     14.98982068	     42.30699808	     41.78303859	     45.00000000	    -25.05820031	   2069.79231499	  -2277.60720988	    148.26014277	   -128.85659279	   2169.26757261	      4.53467748	     16.35556225	     13.02373668	      6.11981328	    -45.00000000	    -35.49607976	     45.00000000	    -44.07931965	  -3507.72511460	    793.95824306	     20.78402865	    -58.43469337	    383.31357092	    153.49911522	     -3.37755178	     -9.82013338
      9.77000000	     44.96504225	     18.03337929	     12.07715553	   -155.57993514	    802.47805144	      6.55095563	     15.13152774	     42.39282327	     41.80129275	     45.00000000	    -24.87773316	   2069.93081183	  -2277.86157013	    148.35572437	   -128.57658226	   2169.16374568	      5.52867922	     16.29674865	     13.14285015	      5.98836194	    -45.00000000	    -35.35236712	     45.00000000	    -44.09410932	  -3508.13418340	    793.69246917	     20.80688060	    -58.53397614	    383.25010797	    154.18028971	     -3.47352533	     -9.87133538
      9.78000000	     45.02098611	     18.32007061	     12.31901037	   -151.74606786	    799.93824799	      6.51631556	     14.98922032	     42.35506108	     41.78017022	     45.00000000	    -24.95890165	   2070.02380230	  -2278.18404158	    148.30077601	   -128.31191495	   2168.98515689	      6.40632228	     16.21406874	     13.24402454	      6.16477965	    -45.00000000	    -35.31173426	     45.00000000	    -44.30934125	  -3508.50027368	    793.38977968	     20.89336957	    -58.62997468	    383.18376560	    154.59972647	     -3.62758388	     -9.98469759
      9.79000000	     45.14556379	     18.44345750	     12.50034318	   -147.89198469	    797.40620737	      6.47306073	     15.49387741	     42.61680119	     42.06993855	     45.00000000	    -24.66935492	   2070.15993926	  -2278.44072806	    148.65093533	   -127.81143442	   2168.83237856	      7.50142654	     16.19152258	     13.35405255	      5.66059166	    -45.00000000	    -35.04369419	     45.00000000	    -44.47398596	  -3509.09260692	    793.09408560	     20.83630626	    -58.30785208	    383.13785846	    154.88567010	     -3.77796878	    -10.09506725
      9.80000000	     45.05133081	     18.86750642	     12.98952809	   -144.02545419	    794.89767012	      6.42258480	     15.05373844	     42.39890180	     41.89927554	     45.00000000	    -25.03574730	   2070.33173993	  -2278.74205250	    148.49814217	   -127.63744195	   2168.66833045	      8.31912804	     16.11894513	     13.41268075	      6.13104089	    -45.00000000	    -34.98159160	     45.00000000	    -45.00000000	  -3509.35601460	    792.85556694	     21.06925904	    -58.44469663	    382.94233530	    154.78213556	     -3.90362067	    -10.29863117
      9.81000000	     45.08195610	     18.87510716	     13.06419021	   -140.15826304	    792.42916724	      6.36627233	     15.77237647	     42.77414105	     42.21861102	     45.00000000	    -24.67910133	   2070.47871556	  -2279.06986660	    148.93407266	   -127.15489333	   2168.56586492	      9.42188983	     16.13857679	     13.55682437	      5.41288654	    -45.00000000	    -34.82050783	     45.00000000	    -44.79593052	  -3509.96739481	    792.66064724	     20.91628070	    -58.14672557	    382.94947023	    154.35351421	     -4.04383416	    -10.47091367
